<svg xmlns="http://www.w3.org/2000/svg" viewBox="0 0 54.83 54.83"><defs><style>.cls-1{fill:none;stroke-width:3px;}.cls-1,.cls-2{stroke:rgb(34, 110, 197);stroke-miterlimit:10;}.cls-2{fill:none;stroke-width:2px;}</style></defs><g id="Layer_2" data-name="Layer 2"><g id="Layer_1-2" data-name="Layer 1"><path class="cls-1" d="M37,1.5H17.8a2.75,2.75,0,0,0-1.91.79L2.29,15.89A2.75,2.75,0,0,0,1.5,17.8V37a2.71,2.71,0,0,0,.79,1.91l13.6,13.6a2.7,2.7,0,0,0,1.91.79H37a2.67,2.67,0,0,0,1.91-.79l13.6-13.6A2.67,2.67,0,0,0,53.33,37V17.8a2.7,2.7,0,0,0-.79-1.91L38.94,2.29A2.71,2.71,0,0,0,37,1.5Z"/><line class="cls-2" x1="16.69" y1="23.08" x2="16.69" y2="1.5"/><line class="cls-2" x1="38.16" y1="53.33" x2="38.16" y2="31.74"/><polyline class="cls-2" points="53.34 16.47 38.16 31.74 16.69 53.33"/><polyline class="cls-2" points="38.16 1.5 16.69 23.08 1.74 38.11"/></g></g></svg>